<svg xmlns="http://www.w3.org/2000/svg" version="1.1" xmlns:xlink="http://www.w3.org/1999/xlink" xmlns:svgjs="http://svgjs.dev/svgjs" width="1000" height="453" viewBox="0 0 1000 453"><g transform="matrix(1,0,0,1,0.10666666666668334,0.28912058823539155)"><svg xmlns="http://www.w3.org/2000/svg" version="1.1" xmlns:xlink="http://www.w3.org/1999/xlink" xmlns:svgjs="http://svgjs.com/svgjs" viewBox="0 0 375 170" data-background-color="#ffffff" preserveAspectRatio="xMidYMid meet" height="453" width="1000"><defs></defs><g id="tight-bounds" transform="matrix(1,0,0,1,-0.03976000000000113,-0.10806000000003735)"><svg viewBox="0 0 375.07953 170.21647" height="170.21647" width="375.07953"><g><svg xmlns="http://www.w3.org/2000/svg" version="1.1" xmlns:xlink="http://www.w3.org/1999/xlink" xmlns:svgjs="http://svgjs.com/svgjs"></svg></g><g><svg viewBox="0 0 375.07953 170.21647" height="170.21647" width="375.07953"><g transform="matrix(1,0,0,1,-10.22024,-40.87744000000001)"><path d="M53.926 203.94h4.332c0-0.808-0.176-1.443-0.527-1.903-0.351-0.461-0.854-0.691-1.507-0.692-0.653 0-1.183 0.224-1.589 0.672-0.406 0.446-0.642 1.087-0.709 1.923zM56.453 208.051v0c-1.016 0-1.811-0.314-2.385-0.94v0c-0.569-0.635-0.853-1.513-0.853-2.635 0-1.122 0.276-2.018 0.828-2.689 0.551-0.67 1.293-1.006 2.224-1.005v0c0.827 0 1.477 0.289 1.949 0.866v0c0.478 0.567 0.717 1.347 0.716 2.341v0 0.515h-5.042c0.006 0.959 0.229 1.694 0.668 2.204 0.442 0.508 1.074 0.762 1.895 0.762v0c0.387 0 0.736-0.027 1.046-0.082 0.31-0.055 0.697-0.176 1.161-0.362v0 0.58c-0.383 0.166-0.744 0.281-1.082 0.346-0.34 0.066-0.715 0.099-1.125 0.099zM65.593 203.258v4.663h-0.467l-0.165-1.111h-0.051c-0.353 0.453-0.713 0.773-1.079 0.961-0.368 0.187-0.81 0.28-1.326 0.28v0c-0.682 0-1.215-0.178-1.601-0.532-0.383-0.353-0.575-0.84-0.575-1.459v0c0-0.687 0.286-1.22 0.859-1.598 0.572-0.378 1.396-0.576 2.47-0.595v0l1.332-0.034v-0.468c0-0.678-0.138-1.184-0.414-1.518-0.278-0.334-0.727-0.501-1.349-0.502-0.62 0-1.276 0.182-1.969 0.547v0l-0.243-0.561c0.774-0.357 1.542-0.535 2.303-0.535 0.761 0 1.331 0.2 1.708 0.6 0.378 0.402 0.567 1.023 0.567 1.862zM61.009 206.088v0c0 0.434 0.135 0.773 0.405 1.017 0.268 0.244 0.646 0.365 1.133 0.365v0c0.74 0 1.328-0.213 1.763-0.64 0.434-0.429 0.652-1.023 0.651-1.782v0-0.694l-1.224 0.057c-0.984 0.043-1.685 0.195-2.102 0.456-0.417 0.261-0.626 0.668-0.626 1.221zM71.336 204.654v0c0.578 0.363 0.867 0.851 0.867 1.465 0 0.614-0.238 1.089-0.714 1.425-0.474 0.338-1.163 0.507-2.069 0.507-0.905 0-1.635-0.144-2.19-0.43v0-0.695c0.708 0.353 1.426 0.53 2.154 0.53 0.727 0 1.274-0.112 1.64-0.337 0.365-0.225 0.547-0.524 0.547-0.898 0-0.376-0.143-0.681-0.428-0.915v0c-0.287-0.244-0.764-0.484-1.431-0.72-0.665-0.236-1.146-0.45-1.445-0.64-0.298-0.191-0.518-0.402-0.657-0.635-0.138-0.23-0.207-0.508-0.207-0.832v0c0-0.525 0.221-0.94 0.663-1.244 0.442-0.302 1.047-0.453 1.816-0.453 0.769 0 1.497 0.141 2.185 0.422v0l-0.244 0.58c-0.693-0.281-1.329-0.422-1.907-0.422-0.578 0-1.033 0.093-1.365 0.281-0.334 0.189-0.501 0.459-0.502 0.81 0 0.351 0.131 0.636 0.394 0.856 0.263 0.219 0.736 0.452 1.419 0.699 0.686 0.246 1.177 0.461 1.474 0.646zM73.684 211.094v0c-0.253 0-0.525-0.045-0.816-0.136v0-0.553c0.257 0.068 0.524 0.102 0.802 0.102v0c0.429 0 0.772-0.212 1.031-0.637v0c0.134-0.215 0.289-0.551 0.465-1.009 0.178-0.455 0.295-0.769 0.351-0.94v0l-2.677-7.003h0.657l1.482 3.932c0.436 1.169 0.721 1.983 0.853 2.442v0h0.042c0.187-0.574 0.481-1.403 0.881-2.487v0l1.485-3.887h0.657l-3.136 8.133c-0.247 0.655-0.46 1.102-0.638 1.34v0c-0.344 0.468-0.823 0.703-1.439 0.703zM89.116 204.397v0c0-2.023-0.764-3.034-2.292-3.035v0c-0.825 0-1.417 0.236-1.774 0.709v0c-0.353 0.478-0.53 1.258-0.529 2.34v0 0.107c0 1.056 0.186 1.814 0.558 2.275 0.372 0.461 0.942 0.691 1.711 0.692 0.769 0 1.349-0.265 1.739-0.797 0.391-0.529 0.586-1.293 0.587-2.291zM86.841 200.782v0c0.973 0 1.708 0.307 2.207 0.92 0.501 0.612 0.751 1.505 0.751 2.68 0 1.175-0.263 2.082-0.791 2.723v0c-0.525 0.631-1.258 0.946-2.198 0.946v0c-0.501 0-0.95-0.103-1.349-0.309-0.399-0.206-0.712-0.5-0.94-0.881v0h-0.06l-0.178 1.06h-0.4v-10.026h0.638v2.521c0 0.41-0.01 0.755-0.031 1.037v0l-0.015 0.552h0.046c0.266-0.419 0.587-0.728 0.963-0.926 0.374-0.198 0.826-0.297 1.357-0.297zM91.66 205.493v-4.575h0.629v4.532c0 0.701 0.147 1.213 0.442 1.536 0.293 0.323 0.755 0.484 1.385 0.484v0c0.835 0 1.448-0.212 1.839-0.637 0.393-0.425 0.589-1.108 0.589-2.048v0-3.867h0.629v7.003h-0.535l-0.116-0.966h-0.043c-0.45 0.731-1.259 1.096-2.428 1.096v0c-1.594 0-2.391-0.853-2.391-2.558zM102.995 204.654v0c0.578 0.363 0.867 0.851 0.867 1.465 0 0.614-0.237 1.089-0.711 1.425-0.476 0.338-1.166 0.507-2.071 0.507-0.905 0-1.634-0.144-2.187-0.43v0-0.695c0.706 0.353 1.423 0.53 2.15 0.53 0.729 0 1.276-0.112 1.64-0.337 0.366-0.225 0.55-0.524 0.55-0.898 0-0.376-0.144-0.681-0.431-0.915v0c-0.287-0.244-0.763-0.484-1.427-0.72-0.667-0.236-1.149-0.45-1.448-0.64-0.298-0.191-0.517-0.402-0.655-0.635-0.14-0.23-0.21-0.508-0.209-0.832v0c0-0.525 0.221-0.94 0.663-1.244 0.442-0.302 1.047-0.453 1.816-0.453 0.769 0 1.497 0.141 2.184 0.422v0l-0.244 0.58c-0.691-0.281-1.326-0.422-1.903-0.422-0.578 0-1.034 0.093-1.369 0.281-0.334 0.189-0.501 0.459-0.501 0.81 0 0.351 0.131 0.636 0.394 0.856 0.263 0.219 0.737 0.452 1.422 0.699 0.686 0.246 1.176 0.461 1.47 0.646zM105.675 200.918h0.638v7.003h-0.638zM105.99 199.592v0c-0.272 0-0.408-0.206-0.408-0.618 0-0.414 0.136-0.62 0.408-0.62v0c0.134 0 0.238 0.054 0.311 0.161 0.074 0.108 0.11 0.258 0.111 0.451 0 0.193-0.037 0.346-0.111 0.459-0.074 0.111-0.178 0.167-0.311 0.167zM114.174 203.337v4.584h-0.629v-4.542c0-0.701-0.147-1.213-0.442-1.535-0.293-0.321-0.755-0.482-1.385-0.482v0c-0.84 0-1.454 0.212-1.841 0.638-0.385 0.423-0.578 1.108-0.578 2.054v0 3.867h-0.638v-7.003h0.536l0.121 0.96h0.043c0.45-0.731 1.259-1.096 2.428-1.096v0c1.59 0 2.385 0.852 2.385 2.555zM116.747 203.94h4.332c0-0.808-0.176-1.443-0.527-1.903-0.351-0.461-0.854-0.691-1.508-0.692-0.653 0-1.183 0.224-1.589 0.672-0.406 0.446-0.642 1.087-0.708 1.923zM119.274 208.051v0c-1.016 0-1.811-0.314-2.386-0.94v0c-0.569-0.635-0.853-1.513-0.852-2.635 0-1.122 0.276-2.018 0.827-2.689 0.551-0.67 1.293-1.006 2.224-1.005v0c0.827 0 1.477 0.289 1.949 0.866v0c0.478 0.567 0.717 1.347 0.717 2.341v0 0.515h-5.043c0.006 0.959 0.229 1.694 0.669 2.204 0.442 0.508 1.074 0.762 1.895 0.762v0c0.387 0 0.736-0.027 1.045-0.082 0.31-0.055 0.697-0.176 1.162-0.362v0 0.58c-0.383 0.166-0.744 0.281-1.082 0.346-0.34 0.066-0.715 0.099-1.125 0.099zM127.167 204.654v0c0.576 0.363 0.864 0.851 0.864 1.465 0 0.614-0.237 1.089-0.711 1.425-0.476 0.338-1.166 0.507-2.071 0.507-0.905 0-1.634-0.144-2.187-0.43v0-0.695c0.706 0.353 1.424 0.53 2.153 0.53 0.727 0 1.274-0.112 1.64-0.337 0.365-0.225 0.547-0.524 0.547-0.898 0-0.376-0.144-0.681-0.431-0.915v0c-0.285-0.244-0.761-0.484-1.428-0.72-0.667-0.236-1.149-0.45-1.447-0.64-0.298-0.191-0.517-0.402-0.655-0.635-0.138-0.23-0.207-0.508-0.206-0.832v0c0-0.525 0.221-0.94 0.662-1.244 0.44-0.302 1.044-0.453 1.814-0.453 0.769 0 1.497 0.141 2.184 0.422v0l-0.244 0.58c-0.691-0.281-1.326-0.422-1.904-0.422-0.578 0-1.034 0.093-1.368 0.281-0.334 0.189-0.501 0.459-0.501 0.81 0 0.351 0.131 0.636 0.393 0.856 0.263 0.219 0.737 0.452 1.423 0.699 0.686 0.246 1.177 0.461 1.473 0.646zM133.317 204.654v0c0.578 0.363 0.867 0.851 0.867 1.465 0 0.614-0.238 1.089-0.714 1.425-0.474 0.338-1.163 0.507-2.068 0.507-0.905 0-1.634-0.144-2.187-0.43v0-0.695c0.706 0.353 1.423 0.53 2.15 0.53 0.729 0 1.276-0.112 1.641-0.337 0.365-0.225 0.547-0.524 0.547-0.898 0-0.376-0.143-0.681-0.428-0.915v0c-0.287-0.244-0.764-0.484-1.431-0.72-0.665-0.236-1.146-0.45-1.445-0.64-0.298-0.191-0.517-0.402-0.654-0.635-0.14-0.23-0.21-0.508-0.21-0.832v0c0-0.525 0.221-0.94 0.663-1.244 0.442-0.302 1.047-0.453 1.816-0.453 0.769 0 1.497 0.141 2.184 0.422v0l-0.243 0.58c-0.693-0.281-1.329-0.422-1.907-0.422-0.576 0-1.031 0.093-1.365 0.281-0.334 0.189-0.501 0.459-0.502 0.81 0 0.351 0.131 0.636 0.394 0.856 0.263 0.219 0.737 0.452 1.422 0.699 0.684 0.246 1.174 0.461 1.47 0.646zM142.599 208.051v0c-1.003 0-1.787-0.318-2.352-0.955-0.567-0.635-0.85-1.522-0.85-2.663 0-1.141 0.295-2.035 0.884-2.683 0.589-0.646 1.395-0.969 2.417-0.968v0c0.603 0 1.183 0.105 1.742 0.314v0l-0.173 0.567c-0.606-0.2-1.134-0.3-1.583-0.301v0c-0.854 0-1.502 0.263-1.947 0.791-0.444 0.527-0.666 1.277-0.666 2.249 0 0.971 0.219 1.726 0.658 2.267v0c0.444 0.535 1.064 0.802 1.861 0.801v0c0.636 0 1.227-0.115 1.771-0.345v0 0.595c-0.444 0.221-1.031 0.331-1.762 0.331zM150.797 203.258v4.663h-0.464l-0.165-1.111h-0.051c-0.353 0.453-0.713 0.773-1.079 0.961-0.368 0.187-0.81 0.28-1.326 0.28v0c-0.684 0-1.217-0.178-1.6-0.532-0.385-0.353-0.578-0.84-0.578-1.459v0c0-0.687 0.287-1.22 0.861-1.598 0.572-0.378 1.396-0.576 2.47-0.595v0l1.332-0.034v-0.468c0-0.678-0.139-1.184-0.417-1.518-0.276-0.334-0.724-0.501-1.345-0.502-0.62 0-1.276 0.182-1.969 0.547v0l-0.244-0.561c0.774-0.357 1.542-0.535 2.303-0.535 0.761 0 1.331 0.2 1.709 0.6 0.376 0.402 0.564 1.023 0.563 1.862zM146.216 206.088v0c0 0.434 0.134 0.773 0.403 1.017 0.27 0.244 0.649 0.365 1.136 0.365v0c0.74 0 1.328-0.213 1.762-0.64 0.434-0.429 0.652-1.023 0.651-1.782v0-0.694l-1.223 0.057c-0.984 0.043-1.685 0.195-2.103 0.456-0.417 0.261-0.626 0.668-0.626 1.221zM155.826 200.782v0c0.3 0 0.618 0.028 0.952 0.085v0l-0.122 0.617c-0.291-0.072-0.594-0.108-0.909-0.108v0c-0.601 0-1.091 0.254-1.471 0.763-0.38 0.508-0.569 1.146-0.569 1.915v0 3.867h-0.637v-7.003h0.535l0.065 1.26h0.051c0.281-0.512 0.586-0.873 0.915-1.082v0c0.334-0.21 0.731-0.314 1.19-0.314zM160.537 208.051c-0.984 0-1.731-0.301-2.24-0.904-0.512-0.603-0.768-1.495-0.768-2.677 0-1.184 0.253-2.096 0.759-2.734 0.506-0.636 1.245-0.955 2.215-0.954v0c0.516 0 0.958 0.094 1.326 0.283 0.37 0.187 0.696 0.501 0.978 0.94v0h0.045c-0.03-0.544-0.045-1.074-0.045-1.589v0-2.521h0.632v10.026h-0.417l-0.164-1.068h-0.051c-0.529 0.799-1.285 1.198-2.27 1.198zM162.807 204.518v-0.107c0-1.088-0.181-1.868-0.544-2.34-0.363-0.472-0.937-0.708-1.723-0.709-0.784 0-1.369 0.267-1.756 0.802-0.387 0.535-0.581 1.315-0.581 2.34v0c0 1.987 0.772 2.98 2.315 2.981v0c0.791 0 1.371-0.23 1.739-0.692 0.366-0.461 0.55-1.219 0.55-2.275zM178.986 203.337v4.584h-0.631v-4.598c0-0.678-0.132-1.175-0.397-1.49-0.264-0.314-0.673-0.47-1.227-0.471v0c-0.721 0-1.253 0.197-1.595 0.592-0.342 0.397-0.513 1.018-0.512 1.865v0 4.102h-0.652v-4.791c0-1.179-0.541-1.768-1.623-1.768v0c-0.737 0-1.272 0.213-1.607 0.641-0.334 0.427-0.501 1.111-0.501 2.051v0 3.867h-0.638v-7.003h0.53l0.13 0.96h0.043c0.187-0.344 0.459-0.613 0.816-0.807 0.359-0.193 0.755-0.289 1.19-0.289v0c1.103 0 1.812 0.416 2.127 1.246v0h0.02c0.23-0.402 0.537-0.71 0.921-0.923 0.385-0.215 0.823-0.323 1.314-0.323v0c0.772 0 1.348 0.206 1.726 0.617 0.378 0.414 0.567 1.06 0.566 1.938zM185.976 203.258v4.663h-0.465l-0.167-1.111h-0.048c-0.353 0.453-0.714 0.773-1.083 0.961-0.368 0.187-0.81 0.28-1.325 0.28v0c-0.682 0-1.215-0.178-1.601-0.532-0.383-0.353-0.575-0.84-0.575-1.459v0c0-0.687 0.286-1.22 0.858-1.598 0.574-0.378 1.398-0.576 2.471-0.595v0l1.334-0.034v-0.468c0-0.678-0.139-1.184-0.416-1.518-0.278-0.334-0.726-0.501-1.346-0.502-0.621 0-1.278 0.182-1.969 0.547v0l-0.244-0.561c0.772-0.357 1.539-0.535 2.301-0.535 0.763 0 1.332 0.2 1.708 0.6 0.378 0.402 0.567 1.023 0.567 1.862zM181.392 206.088v0c0 0.434 0.135 0.773 0.405 1.017 0.27 0.244 0.649 0.365 1.136 0.365v0c0.738 0 1.325-0.213 1.759-0.64 0.434-0.429 0.652-1.023 0.652-1.782v0-0.694l-1.224 0.057c-0.982 0.043-1.683 0.195-2.102 0.456-0.417 0.261-0.626 0.668-0.626 1.221zM193.761 203.337v4.584h-0.632v-4.542c0-0.701-0.146-1.213-0.439-1.535-0.295-0.321-0.756-0.482-1.385-0.482v0c-0.84 0-1.454 0.212-1.842 0.638-0.387 0.423-0.581 1.108-0.581 2.054v0 3.867h-0.637v-7.003h0.538l0.122 0.96h0.042c0.45-0.731 1.259-1.096 2.428-1.096v0c1.59 0 2.385 0.852 2.386 2.555zM200.75 203.258v4.663h-0.467l-0.165-1.111h-0.048c-0.353 0.453-0.714 0.773-1.082 0.961-0.368 0.187-0.81 0.28-1.326 0.28v0c-0.682 0-1.215-0.178-1.601-0.532-0.383-0.353-0.575-0.84-0.575-1.459v0c0-0.687 0.286-1.22 0.859-1.598 0.574-0.378 1.398-0.576 2.47-0.595v0l1.332-0.034v-0.468c0-0.678-0.138-1.184-0.414-1.518-0.278-0.334-0.726-0.501-1.346-0.502-0.621 0-1.279 0.182-1.972 0.547v0l-0.24-0.561c0.772-0.357 1.539-0.535 2.3-0.535 0.761 0 1.331 0.2 1.708 0.6 0.378 0.402 0.567 1.023 0.567 1.862zM196.166 206.088v0c0 0.434 0.135 0.773 0.405 1.017 0.27 0.244 0.648 0.365 1.133 0.365v0c0.74 0 1.328-0.213 1.763-0.64 0.434-0.429 0.652-1.023 0.651-1.782v0-0.694l-1.224 0.057c-0.984 0.043-1.685 0.195-2.102 0.456-0.417 0.261-0.626 0.668-0.626 1.221zM205.884 207.592h-1.145c-1.284 0-1.926 0.506-1.926 1.519v0c0 0.959 0.716 1.439 2.147 1.439v0c1.838 0 2.757-0.586 2.757-1.757v0c0-0.425-0.144-0.731-0.434-0.917-0.289-0.189-0.755-0.283-1.399-0.284zM206.243 200.918h2.241v0.444l-1.453 0.085c0.385 0.478 0.578 1.008 0.578 1.59v0c0 0.672-0.224 1.219-0.672 1.64-0.45 0.419-1.051 0.629-1.804 0.629v0c-0.321 0-0.546-0.014-0.674-0.043v0c-0.519 0.272-0.779 0.62-0.78 1.046v0c0 0.23 0.086 0.396 0.258 0.496 0.172 0.1 0.455 0.15 0.85 0.15v0h1.227c0.763 0 1.347 0.155 1.751 0.464 0.402 0.31 0.603 0.763 0.603 1.36v0c0 0.74-0.299 1.311-0.898 1.711-0.599 0.402-1.454 0.603-2.567 0.604v0c-0.874 0-1.554-0.17-2.039-0.51-0.487-0.338-0.731-0.81-0.731-1.417v0c0-0.478 0.147-0.876 0.442-1.195 0.297-0.321 0.705-0.541 1.226-0.66v0c-0.215-0.085-0.386-0.212-0.513-0.383-0.127-0.17-0.19-0.36-0.189-0.569v0c0-0.468 0.3-0.881 0.901-1.238v0c-0.41-0.168-0.728-0.431-0.955-0.788-0.227-0.359-0.34-0.77-0.34-1.232v0c0-0.703 0.223-1.265 0.668-1.689 0.448-0.421 1.045-0.632 1.794-0.631v0c0.474 0 0.833 0.045 1.076 0.136zM206.966 203.051c0-0.578-0.158-1.017-0.473-1.318-0.315-0.3-0.758-0.45-1.329-0.45-0.57 0-1.015 0.16-1.334 0.479-0.321 0.319-0.482 0.756-0.482 1.311 0 0.553 0.162 0.98 0.487 1.281 0.325 0.3 0.772 0.45 1.343 0.451 0.57 0 1.011-0.147 1.323-0.442 0.31-0.297 0.465-0.734 0.465-1.312zM210.224 203.94h4.332c0-0.808-0.175-1.443-0.525-1.903-0.351-0.461-0.854-0.691-1.507-0.692-0.655 0-1.186 0.224-1.592 0.672-0.406 0.446-0.642 1.087-0.708 1.923zM212.751 208.051v0c-1.016 0-1.81-0.314-2.383-0.94v0c-0.569-0.635-0.853-1.513-0.852-2.635 0-1.122 0.276-2.018 0.827-2.689 0.551-0.67 1.293-1.006 2.224-1.005v0c0.825 0 1.474 0.289 1.946 0.866v0c0.478 0.567 0.717 1.347 0.717 2.341v0 0.515h-5.043c0.006 0.959 0.229 1.694 0.671 2.204 0.442 0.508 1.073 0.762 1.893 0.762v0c0.387 0 0.736-0.027 1.045-0.082 0.312-0.055 0.699-0.176 1.162-0.362v0 0.58c-0.382 0.166-0.742 0.281-1.082 0.346-0.338 0.066-0.713 0.099-1.125 0.099zM226.551 203.337v4.584h-0.629v-4.598c0-0.678-0.132-1.175-0.397-1.49-0.266-0.314-0.676-0.47-1.229-0.471v0c-0.72 0-1.25 0.197-1.593 0.592-0.342 0.397-0.513 1.018-0.512 1.865v0 4.102h-0.652v-4.791c0-1.179-0.542-1.768-1.626-1.768v0c-0.735 0-1.269 0.213-1.604 0.641-0.334 0.427-0.501 1.111-0.501 2.051v0 3.867h-0.638v-7.003h0.53l0.131 0.96h0.042c0.185-0.344 0.457-0.613 0.816-0.807 0.359-0.193 0.755-0.289 1.19-0.289v0c1.101 0 1.809 0.416 2.125 1.246v0h0.022c0.229-0.402 0.535-0.71 0.921-0.923 0.383-0.215 0.822-0.323 1.315-0.323v0c0.772 0 1.348 0.206 1.725 0.617 0.376 0.414 0.564 1.06 0.564 1.938zM229.123 203.94h4.332c0-0.808-0.176-1.443-0.527-1.903-0.349-0.461-0.852-0.691-1.507-0.692-0.653 0-1.183 0.224-1.59 0.672-0.406 0.446-0.642 1.087-0.708 1.923zM231.65 208.051v0c-1.016 0-1.81-0.314-2.382-0.94v0c-0.569-0.635-0.853-1.513-0.853-2.635 0-1.122 0.276-2.018 0.827-2.689 0.551-0.67 1.293-1.006 2.224-1.005v0c0.825 0 1.474 0.289 1.946 0.866v0c0.478 0.567 0.717 1.347 0.717 2.341v0 0.515h-5.043c0.006 0.959 0.229 1.694 0.672 2.204 0.442 0.508 1.073 0.762 1.892 0.762v0c0.387 0 0.736-0.027 1.046-0.082 0.312-0.055 0.699-0.176 1.161-0.362v0 0.58c-0.382 0.166-0.742 0.281-1.082 0.346-0.338 0.066-0.713 0.099-1.125 0.099zM241.583 203.337v4.584h-0.629v-4.542c0-0.701-0.147-1.213-0.442-1.535-0.293-0.321-0.755-0.482-1.385-0.482v0c-0.84 0-1.453 0.212-1.839 0.638-0.387 0.423-0.581 1.108-0.581 2.054v0 3.867h-0.637v-7.003h0.538l0.122 0.96h0.042c0.448-0.731 1.257-1.096 2.428-1.096v0c1.588 0 2.383 0.852 2.383 2.555zM244.527 201.467v4.434c0 0.54 0.094 0.939 0.283 1.195 0.189 0.259 0.486 0.388 0.892 0.389 0.406 0 0.759-0.036 1.06-0.108v0 0.516c-0.3 0.106-0.658 0.159-1.074 0.158v0c-0.616 0-1.072-0.167-1.368-0.501-0.297-0.334-0.445-0.853-0.445-1.556v0-4.527h-1.037v-0.371l1.037-0.295 0.323-1.58h0.329v1.697h2.056v0.549z" fill="#0074d9" data-fill-palette-color="secondary"></path><path d="M10.22 206.323v-165.446h375.08v165.446l-127.119 0 0-3.807h123.313v-157.832h-367.468v157.832h27.771l0 3.807z" fill="#ff8660" data-fill-palette-color="tertiary"></path></g><g transform="matrix(1,0,0,1,29.33176499999999,55.943599206902036)"><svg viewBox="0 0 316.416 58.32927158619591" height="58.32927158619591" width="316.416"><g><svg viewBox="0 0 316.416 58.32927158619591" height="58.32927158619591" width="316.416"><g><svg viewBox="0 0 415.7222309822529 76.63574192007704" height="58.32927158619591" width="316.416"><g transform="matrix(1,0,0,1,99.30623098225286,10.59148097448243)"><svg viewBox="0 0 316.416 55.45277997111218" height="55.45277997111218" width="316.416"><g><svg viewBox="0 0 316.416 55.45277997111218" height="55.45277997111218" width="316.416"><g><svg viewBox="0 0 316.416 55.45277997111218" height="55.45277997111218" width="316.416"><g transform="matrix(1,0,0,1,0,0)"><svg width="316.416" viewBox="4 -35.7 207.69 36.400000000000006" height="55.45277997111218" data-palette-color="#ff8660"><path d="M8.75 0L4 0 4-35 8.75-35 8.75 0ZM31.85 0.7L31.85 0.7Q27 0.7 23.11-1.54 19.22-3.78 16.96-7.88 14.7-11.98 14.7-17.55L14.7-17.55Q14.7-23.08 17.04-27.15 19.37-31.23 23.46-33.46 27.55-35.7 32.8-35.7L32.8-35.7Q35.62-35.7 38.19-35.11 40.75-34.52 42.65-33.7L42.65-33.7 42.2-29.55Q40.15-30.35 37.85-30.88 35.55-31.4 32.95-31.4L32.95-31.4Q28.47-31.4 25.59-29.54 22.7-27.68 21.3-24.53 19.9-21.38 19.9-17.5L19.9-17.5Q19.9-13.5 21.32-10.36 22.75-7.23 25.7-5.41 28.65-3.6 33.2-3.6L33.2-3.6Q34.32-3.6 36-3.8 37.67-4 39.05-4.55L39.05-4.55 39.05-13.25 33.55-13.25 33.55-17.55 43.8-17.55 43.8-1.95Q41.75-0.83 38.7-0.06 35.65 0.7 31.85 0.7ZM65.59 0.7L65.59 0.7Q60.6 0.7 56.7-1.54 52.8-3.78 50.57-7.86 48.35-11.95 48.35-17.5L48.35-17.5Q48.35-23.05 50.57-27.14 52.8-31.23 56.7-33.46 60.6-35.7 65.59-35.7L65.59-35.7Q70.59-35.7 74.5-33.46 78.4-31.23 80.62-27.14 82.84-23.05 82.84-17.5L82.84-17.5Q82.84-11.95 80.62-7.86 78.4-3.78 74.5-1.54 70.59 0.7 65.59 0.7ZM65.59-3.9L65.59-3.9Q69.62-3.9 72.32-5.71 75.02-7.53 76.38-10.61 77.75-13.7 77.75-17.5L77.75-17.5Q77.75-21.3 76.38-24.39 75.02-27.48 72.32-29.29 69.62-31.1 65.59-31.1L65.59-31.1Q61.57-31.1 58.87-29.29 56.17-27.48 54.81-24.39 53.45-21.3 53.45-17.5L53.45-17.5Q53.45-13.7 54.81-10.61 56.17-7.53 58.87-5.71 61.57-3.9 65.59-3.9ZM102.04 0L88.84 0 88.84-35 99.89-35Q104.59-35 107.27-32.89 109.94-30.78 109.94-26.45L109.94-26.45Q109.94-23.53 108.67-21.3 107.39-19.07 104.84-18.4L104.84-18.4 105.54-19.2Q109.19-18.6 111.19-16.29 113.19-13.98 113.19-10L113.19-10Q113.19-5.4 110.23-2.7 107.27 0 102.04 0L102.04 0ZM93.59-16.15L93.59-4.3 101.64-4.3Q104.54-4.3 106.27-5.75 107.99-7.2 107.99-10.15L107.99-10.15Q107.99-13.45 106.23-14.8 104.47-16.15 101.64-16.15L101.64-16.15 93.59-16.15ZM93.59-30.75L93.59-20.45 99.29-20.45Q101.84-20.45 103.44-21.48 105.04-22.5 105.04-25.6L105.04-25.6Q105.04-28.68 103.44-29.71 101.84-30.75 99.29-30.75L99.29-30.75 93.59-30.75ZM137.59-13.75L137.59-9.45 122.59-9.45 122.59-13.75 137.59-13.75ZM140.14 0L129.39-30.35 130.79-30.35 120.04 0 115.04 0 127.59-35 132.59-35 145.14 0 140.14 0ZM162.44 0L149.49 0 149.49-35 162.44-35Q167.51-35 171.44-32.93 175.36-30.85 177.6-26.94 179.84-23.03 179.84-17.5L179.84-17.5Q179.84-11.98 177.6-8.06 175.36-4.15 171.44-2.08 167.51 0 162.44 0L162.44 0ZM154.24-30.7L154.24-4.3 162.44-4.3Q166.44-4.3 169.15-5.96 171.86-7.63 173.25-10.6 174.64-13.58 174.64-17.5L174.64-17.5Q174.64-21.43 173.25-24.4 171.86-27.38 169.15-29.04 166.44-30.7 162.44-30.7L162.44-30.7 154.24-30.7ZM204.14-13.75L204.14-9.45 189.14-9.45 189.14-13.75 204.14-13.75ZM206.69 0L195.94-30.35 197.34-30.35 186.59 0 181.59 0 194.14-35 199.14-35 211.69 0 206.69 0Z" opacity="1" transform="matrix(1,0,0,1,0,0)" fill="#ff8660" class="undefined-text-0" data-fill-palette-color="primary" id="text-0"></path></svg></g></svg></g></svg></g></svg></g><g><svg viewBox="0 0 86.21516049779258 76.63574192007704" height="76.63574192007704" width="86.21516049779258"><g><svg xmlns="http://www.w3.org/2000/svg" xmlns:xlink="http://www.w3.org/1999/xlink" version="1.1" x="0" y="0" viewBox="5.000023565878193 14.999996344863025 89.99995279154068 80.00000365513698" enable-background="new 0 0 100 100" xml:space="preserve" height="76.63574192007704" width="86.21516049779258" class="icon-icon-0" fill="#ed2326" data-fill-palette-color="accent" id="icon-0"><path fill="#ed2326" d="M89.445 16.084c-0.977 0.161-8.383 0.357-11.742 0.357h-5.841-6.28c-4.234 0.05-8.605 0.849-9.93 1.395 0 0-1.66 0.605-2.878 1.804-0.73 0.719-2.212 3.278-2.774 4.454-0.558-1.171-2.045-3.734-2.775-4.454-1.217-1.199-2.878-1.804-2.878-1.804-1.324-0.546-5.695-1.345-9.93-1.395h-6.28-5.841c-3.359 0-10.765-0.196-11.742-0.357-5.553-0.912-5.565-1.352-5.553-0.912s4.044 11.565 15.981 14.602c3.982 1.013 10.734 3.032 17.172 4.485 5.084 1.146 5.505 4.733 5.633 6.621C44.402 49.971 34.403 82.617 31.46 95h37.079c-2.942-12.383-12.941-45.029-12.326-54.12 0.127-1.888 0.549-5.476 5.633-6.621 6.438-1.453 13.189-3.472 17.172-4.485 11.938-3.037 15.969-14.163 15.981-14.602S94.999 15.172 89.445 16.084z" data-fill-palette-color="accent"></path></svg></g></svg></g></svg></g></svg></g></svg></g></svg></g></svg><rect width="375.07953" height="170.21647" fill="transparent" stroke="transparent"></rect></g></svg></g></svg>