<svg xmlns="http://www.w3.org/2000/svg" viewBox="0 0 500 500"><g id="freepik--Stars--inject-23"><path d="M52.67,298.68,59.12,301a1.12,1.12,0,0,1,.23,2l-5.72,3.73a1.14,1.14,0,0,0-.52.92l-.17,6.83a1.13,1.13,0,0,1-1.84.85L45.79,311a1.13,1.13,0,0,0-1-.2l-6.55,1.94a1.13,1.13,0,0,1-1.38-1.49l2.45-6.38a1.14,1.14,0,0,0-.13-1l-3.87-5.63a1.13,1.13,0,0,1,1-1.76l6.82.35a1.16,1.16,0,0,0,1-.44l4.15-5.42a1.13,1.13,0,0,1,2,.39l1.77,6.6A1.14,1.14,0,0,0,52.67,298.68Z" style="fill:#FF725E"></path><path d="M227.89,70.2l6.33-2.57A1.12,1.12,0,0,1,235.73,69l-1.8,6.59a1.11,1.11,0,0,0,.23,1l4.4,5.23a1.13,1.13,0,0,1-.81,1.85l-6.82.32a1.14,1.14,0,0,0-.91.53l-3.6,5.8a1.12,1.12,0,0,1-2-.19L222,83.73a1.12,1.12,0,0,0-.78-.7l-6.64-1.64a1.12,1.12,0,0,1-.43-2l5.33-4.27a1.11,1.11,0,0,0,.42-1l-.49-6.82a1.12,1.12,0,0,1,1.74-1l5.71,3.75A1.1,1.1,0,0,0,227.89,70.2Z" style="fill:#FF725E"></path><path d="M449.42,315.63l3.77.36a.62.62,0,0,1,.39,1L451,319.81a.63.63,0,0,0-.15.56l.83,3.69a.62.62,0,0,1-.87.7l-3.44-1.59a.66.66,0,0,0-.58,0l-3.25,1.93a.63.63,0,0,1-.94-.61l.45-3.76a.63.63,0,0,0-.21-.54l-2.84-2.5a.63.63,0,0,1,.29-1.08l3.72-.73a.63.63,0,0,0,.45-.37l1.5-3.47a.62.62,0,0,1,1.12-.06l1.84,3.3A.62.62,0,0,0,449.42,315.63Z" style="fill:#FF725E"></path><path d="M65.22,247.15l2.2.2a.36.36,0,0,1,.23.61l-1.5,1.63a.37.37,0,0,0-.09.32l.49,2.16a.37.37,0,0,1-.51.41l-2-.93a.37.37,0,0,0-.34,0l-1.9,1.13a.37.37,0,0,1-.55-.36l.26-2.2a.34.34,0,0,0-.12-.31l-1.66-1.46a.37.37,0,0,1,.17-.63l2.17-.43a.4.4,0,0,0,.27-.22l.87-2a.37.37,0,0,1,.66,0L64.93,247A.37.37,0,0,0,65.22,247.15Z" style="fill:#FF725E"></path><path d="M450.52,41l5.56.14a.92.92,0,0,1,.7,1.49l-3.5,4.34a.91.91,0,0,0-.16.84l1.59,5.33a.92.92,0,0,1-1.21,1.12l-5.2-2a.92.92,0,0,0-.85.1l-4.58,3.16a.92.92,0,0,1-1.44-.8l.28-5.56a.92.92,0,0,0-.36-.78L436.93,45a.91.91,0,0,1,.32-1.61l5.37-1.45a.93.93,0,0,0,.63-.59l1.85-5.25a.92.92,0,0,1,1.63-.19l3,4.66A.92.92,0,0,0,450.52,41Z" style="fill:#FF725E"></path><path d="M86.16,37.72l3.26.79a.55.55,0,0,1,.21,1L87,41.59a.56.56,0,0,0-.21.47l.26,3.35a.55.55,0,0,1-.85.5l-2.81-1.83a.57.57,0,0,0-.51,0l-3.1,1.28a.56.56,0,0,1-.75-.66l.87-3.24a.57.57,0,0,0-.11-.5l-2.18-2.55a.55.55,0,0,1,.39-.91l3.35-.18a.55.55,0,0,0,.44-.26l1.76-2.86a.55.55,0,0,1,1,.09l1.2,3.13A.54.54,0,0,0,86.16,37.72Z" style="fill:#FF725E"></path><path d="M333.59,34.1l2.05,1.4a.41.41,0,0,1-.11.73l-2.36.77a.37.37,0,0,0-.26.27l-.71,2.39a.41.41,0,0,1-.72.12l-1.47-2a.41.41,0,0,0-.34-.17l-2.48.07a.42.42,0,0,1-.35-.65l1.46-2a.43.43,0,0,0,.06-.38l-.83-2.34a.41.41,0,0,1,.51-.53l2.36.77a.43.43,0,0,0,.38-.07l2-1.51a.41.41,0,0,1,.66.32v2.49A.43.43,0,0,0,333.59,34.1Z" style="fill:#FF725E"></path><path d="M203.81,205.43l2,1.41a.41.41,0,0,1-.1.73l-2.36.77a.41.41,0,0,0-.27.27l-.7,2.38a.42.42,0,0,1-.73.13l-1.46-2a.42.42,0,0,0-.34-.17l-2.49.07a.41.41,0,0,1-.34-.65l1.46-2a.4.4,0,0,0,0-.38l-.83-2.34a.41.41,0,0,1,.52-.53l2.36.77a.41.41,0,0,0,.37-.07l2-1.51a.4.4,0,0,1,.65.32v2.49A.38.38,0,0,0,203.81,205.43Z" style="fill:#FF725E"></path><path d="M278.46,456.68l6.68,1.12a1.12,1.12,0,0,1,.57,1.92l-4.95,4.61a1.1,1.1,0,0,0-.34,1l1,6.7a1.11,1.11,0,0,1-1.64,1.14l-5.92-3.29a1.15,1.15,0,0,0-1,0l-6.06,3a1.11,1.11,0,0,1-1.59-1.21l1.29-6.64a1.12,1.12,0,0,0-.3-1l-4.74-4.83a1.12,1.12,0,0,1,.66-1.89l6.72-.82a1.14,1.14,0,0,0,.86-.59l3.13-6a1.11,1.11,0,0,1,2,0l2.86,6.14A1.11,1.11,0,0,0,278.46,456.68Z" style="fill:#FF725E"></path><path d="M260.8,467.87a1.62,1.62,0,1,1-1.62-1.62A1.62,1.62,0,0,1,260.8,467.87Z" style="fill:#FF725E"></path></g></svg>